<svg xmlns="http://www.w3.org/2000/svg" xmlns:xlink="http://www.w3.org/1999/xlink" zoomAndPan="magnify" preserveAspectRatio="xMidYMid meet" version="1.0" viewBox="148.93 759.63 1948.6 607.77"><path fill="#a622a3" d="M 1334.984375 1009.460938 C 1326.964844 1011.015625 1312.925781 1026.832031 1312.925781 1034.316406 C 1312.925781 1044.214844 1316.773438 1043.5625 1328.277344 1031.707031 C 1339.285156 1020.363281 1340.464844 1019.914062 1358.003906 1020.429688 C 1371.867188 1020.835938 1377.546875 1019.6875 1381.578125 1015.664062 C 1384.503906 1012.753906 1385.355469 1010.367188 1383.472656 1010.367188 C 1381.589844 1010.367188 1379.59375 1011.550781 1379.035156 1012.996094 C 1378.480469 1014.4375 1374.621094 1016.664062 1370.457031 1017.9375 L 1362.886719 1020.253906 L 1378.027344 1007.542969 L 1359.859375 1007.851562 C 1349.867188 1008.023438 1338.671875 1008.746094 1334.984375 1009.460938 " fill-opacity="1" fill-rule="evenodd"/><path fill="#ff00f2" d="M 1390.074219 1008.875 C 1377.632812 1019.878906 1368.132812 1023.128906 1354.9375 1020.902344 C 1342.355469 1018.773438 1331.753906 1023.96875 1323.757812 1036.171875 L 1319.03125 1043.390625 L 1331.5 1038.988281 C 1338.355469 1036.570312 1351.972656 1034.589844 1361.753906 1034.589844 C 1371.539062 1034.589844 1379.542969 1033.550781 1379.542969 1032.28125 C 1379.542969 1031.011719 1382.601562 1028.625 1386.339844 1026.980469 C 1393.34375 1023.90625 1401.972656 1009.53125 1400.132812 1004.015625 C 1399.5625 1002.300781 1395.035156 1004.488281 1390.074219 1008.875 " fill-opacity="1" fill-rule="evenodd"/><path fill="#da416d" d="M 1363.816406 955.160156 C 1358.535156 962.300781 1344.617188 971.003906 1338.472656 971.003906 C 1334.160156 971.003906 1334.324219 972.261719 1339.75 980.84375 C 1344.296875 988.039062 1349.054688 991.265625 1357.457031 992.847656 C 1375.222656 996.191406 1390.773438 992.757812 1397.695312 983.957031 C 1405.59375 973.917969 1405.449219 973.230469 1394.453125 968.359375 C 1389.335938 966.09375 1381.640625 960.992188 1377.359375 957.023438 C 1368.054688 948.402344 1368.742188 948.496094 1363.816406 955.160156 M 1387.910156 1003.292969 C 1384.171875 1007.03125 1381.84375 1007.480469 1378.890625 1005.023438 C 1375.132812 1001.910156 1350.042969 1002.519531 1346.753906 1005.8125 C 1345.910156 1006.652344 1352.605469 1007.382812 1361.625 1007.4375 L 1378.027344 1007.542969 L 1362.886719 1020.253906 L 1370.457031 1017.9375 C 1374.621094 1016.664062 1378.480469 1014.4375 1379.035156 1012.996094 C 1379.59375 1011.550781 1382.074219 1010.367188 1384.550781 1010.367188 C 1387.027344 1010.367188 1391.113281 1008.3125 1393.625 1005.796875 C 1396.140625 1003.285156 1399.449219 1002 1400.980469 1002.949219 C 1402.511719 1003.894531 1403.765625 1003.222656 1403.765625 1001.460938 C 1403.765625 996.496094 1393.527344 997.675781 1387.910156 1003.292969 M 1325.515625 1040.84375 C 1321.613281 1042.40625 1317.1875 1042.917969 1315.675781 1041.988281 C 1314.164062 1041.050781 1312.925781 1042.414062 1312.925781 1045.007812 C 1312.925781 1051.539062 1321.0625 1050.914062 1330.269531 1043.671875 C 1338.507812 1037.195312 1336.945312 1036.265625 1325.515625 1040.84375 " fill-opacity="1" fill-rule="evenodd"/><path fill="#dea607" d="M 396.984375 762.394531 C 386.992188 763.824219 376.09375 766.289062 372.761719 767.867188 C 369.433594 769.449219 361.554688 772.320312 355.257812 774.246094 C 324.453125 783.675781 289.695312 812.230469 275.949219 839.402344 C 268.546875 854.03125 267.1875 860.335938 267.1875 879.96875 C 267.1875 900.488281 268.300781 905.167969 276.699219 919.851562 C 284.925781 934.226562 306.324219 955.863281 312.316406 955.863281 C 313.40625 955.863281 317.914062 958.324219 322.335938 961.335938 C 326.757812 964.34375 343.996094 972.640625 360.652344 979.765625 C 441.050781 1014.167969 463.59375 1029.976562 480.109375 1063.519531 C 503.269531 1110.566406 486.296875 1161.890625 433.878906 1203.332031 C 426.21875 1209.386719 398.339844 1221.605469 378.820312 1227.464844 C 365.070312 1231.589844 350.34375 1232.917969 318.261719 1232.917969 C 280.039062 1232.917969 274.082031 1232.179688 257.703125 1225.410156 C 213.6875 1207.21875 192.601562 1181.722656 192.601562 1146.683594 C 192.601562 1136.613281 193.851562 1126.003906 195.378906 1123.113281 C 196.90625 1120.222656 199.75 1113.535156 201.703125 1108.25 C 208.960938 1088.613281 241.09375 1064.867188 260.414062 1064.867188 C 270.097656 1064.867188 291.789062 1076.007812 295.457031 1082.863281 C 302.488281 1096 299.253906 1107.722656 284.914062 1121.074219 C 270.3125 1134.675781 269.335938 1142.21875 281.785156 1145.34375 C 285.5 1146.277344 291.820312 1152.34375 295.828125 1158.828125 C 304.890625 1173.472656 309.417969 1175.402344 319.386719 1168.871094 C 331.773438 1160.757812 337.523438 1152.390625 342.808594 1134.808594 C 351.1875 1106.914062 344.328125 1081.480469 323.277344 1062.402344 C 303.789062 1044.746094 296.789062 1042.3125 265.273438 1042.230469 C 239.140625 1042.164062 234.644531 1043.042969 216.152344 1051.804688 C 190.359375 1064.019531 168.914062 1084.015625 157.589844 1106.382812 C 150.058594 1121.269531 148.777344 1127.253906 148.941406 1146.675781 C 149.285156 1188.136719 171.960938 1220.894531 215.40625 1242.6875 C 249.90625 1259.996094 311.410156 1264.601562 366.707031 1254.015625 C 381.695312 1251.144531 409.628906 1248.5625 428.777344 1248.273438 C 474.332031 1247.585938 497.101562 1239.980469 526.277344 1215.6875 C 542.28125 1202.367188 550.328125 1190.640625 563.519531 1161.425781 C 570.082031 1146.894531 579.960938 1133.492188 599.097656 1113.144531 C 624.847656 1085.765625 630.890625 1081.21875 620.5625 1096.980469 C 617.796875 1101.203125 613.371094 1108.59375 610.722656 1113.40625 C 598.085938 1136.386719 583.621094 1159.128906 569.097656 1178.84375 C 542.574219 1214.851562 531.226562 1238.070312 529.472656 1259.90625 C 528.460938 1272.484375 529.117188 1279.75 531.390625 1281.15625 C 536.691406 1284.429688 1910.199219 1283.3125 1913.480469 1280.03125 C 1915.023438 1278.492188 1915.464844 1275.09375 1914.460938 1272.484375 C 1912.820312 1268.195312 1847.503906 1267.738281 1235.339844 1267.738281 C 579.375 1267.738281 558.199219 1267.5625 563.050781 1262.199219 C 565.808594 1259.152344 568.0625 1255.722656 568.0625 1254.570312 C 568.0625 1253.417969 573.335938 1241.261719 579.785156 1227.558594 C 586.234375 1213.851562 592.457031 1199.570312 593.613281 1195.824219 C 595.554688 1189.554688 597.527344 1189.011719 618.378906 1189.011719 C 644.753906 1189.011719 652.507812 1185.75 669.808594 1167.371094 C 676.632812 1160.121094 687.867188 1148.90625 694.78125 1142.445312 L 707.347656 1130.699219 L 707.347656 1148.546875 C 707.347656 1177.210938 726.605469 1207.191406 745.003906 1207.167969 C 756.984375 1207.152344 767.59375 1200.371094 793.640625 1176.054688 C 805.300781 1165.175781 815.066406 1156.488281 815.34375 1156.75 C 815.625 1157.015625 813.972656 1164.472656 811.679688 1173.328125 C 801.75 1211.605469 821.101562 1226.167969 855.328125 1206.179688 C 869.085938 1198.144531 868.050781 1198.921875 894.261719 1176.925781 C 916.605469 1158.171875 924.039062 1148.8125 920.773438 1143.53125 C 917.636719 1138.457031 912.21875 1140.183594 895.101562 1151.710938 C 883.410156 1159.585938 875.09375 1162.917969 866.773438 1163.066406 C 844.976562 1163.453125 844.09375 1147.46875 864.664062 1124.9375 C 881.519531 1106.484375 884.433594 1098.472656 879.011719 1085.496094 C 874.898438 1075.648438 875.015625 1074.898438 881.058594 1072.234375 C 890.789062 1067.953125 890.480469 1059.804688 880.203125 1049.53125 C 871.621094 1040.945312 869.871094 1040.414062 856.511719 1042.355469 C 840.011719 1044.75 808.398438 1055.792969 790.613281 1065.375 C 779.6875 1071.261719 744.402344 1094.425781 740.652344 1098.175781 C 739.820312 1099.007812 735.734375 1102.414062 731.570312 1105.746094 L 724 1111.800781 L 728.855469 1105.746094 C 743.425781 1087.574219 750.3125 1059.820312 742.253906 1051.765625 C 730.589844 1040.101562 704.359375 1050.902344 660.414062 1085.46875 C 641.175781 1100.597656 660.636719 1067.9375 689.9375 1035.917969 C 707.980469 1016.195312 713.402344 1008.234375 713.402344 1001.441406 C 713.402344 995.484375 711.5625 992.023438 707.765625 990.820312 C 701.136719 988.714844 676.808594 998.496094 668.929688 1006.433594 C 662.144531 1013.265625 633.300781 1047.441406 621.050781 1063.15625 C 616.054688 1069.566406 603.660156 1083.726562 593.507812 1094.625 L 575.046875 1114.4375 L 571.925781 1090.003906 C 565.960938 1043.285156 539.027344 1001.347656 498.328125 975.402344 C 484.097656 966.335938 483.261719 965.910156 413.640625 932.429688 C 360.261719 906.761719 354.59375 901.449219 354.59375 877.09375 C 354.59375 861.921875 355.785156 858.128906 362.847656 850.757812 C 367.382812 846.019531 378.417969 838.4375 387.371094 833.90625 C 400.925781 827.042969 407.574219 825.664062 427.136719 825.664062 C 440.050781 825.664062 459.960938 827.917969 471.375 830.671875 C 488.308594 834.761719 492.988281 834.972656 496.789062 831.816406 C 503.601562 826.164062 502.523438 821.539062 493.121094 816.085938 C 468.054688 801.542969 420.914062 796.925781 391.652344 806.15625 C 370.609375 812.789062 345.023438 832.890625 336.050781 849.84375 C 319.554688 880.988281 330.140625 909.519531 367.617188 934.925781 C 374.777344 939.78125 381.117188 943.753906 381.703125 943.753906 C 382.964844 943.753906 425.992188 963.636719 461.6875 980.714844 C 488.730469 993.652344 514.894531 1016.378906 529.632812 1039.726562 C 540.082031 1056.277344 550.792969 1098.660156 548.976562 1116.292969 C 545.457031 1150.589844 536.882812 1168.902344 512.34375 1194.550781 C 495.882812 1211.757812 482.226562 1220.214844 465.113281 1223.800781 C 455.109375 1225.894531 455.648438 1225.15625 474.777344 1210.574219 C 511.410156 1182.65625 533.007812 1143.875 533.15625 1105.746094 C 533.285156 1074.074219 523.949219 1052.332031 498.453125 1024.894531 C 476.347656 1001.109375 455.417969 988.710938 400.351562 966.773438 C 366.433594 953.261719 335.125 934.445312 321.535156 919.40625 C 302.070312 897.859375 299.640625 863.484375 315.902344 839.636719 C 324.714844 826.710938 346.804688 804.570312 350.957031 804.503906 C 352.285156 804.488281 359.097656 801.675781 366.09375 798.257812 C 382.160156 790.414062 411.300781 783.375 427.960938 783.320312 C 450.832031 783.238281 489.578125 792.722656 502.785156 801.636719 C 519.121094 812.664062 528.699219 829.972656 528.699219 848.472656 C 528.699219 875.992188 500.457031 899.203125 473.195312 894.089844 C 464.464844 892.449219 462.160156 890.429688 460.523438 882.972656 C 456.945312 866.675781 470.773438 858.933594 481.765625 871.082031 C 487.902344 877.863281 498.367188 879.011719 503.871094 873.503906 C 509.449219 867.929688 508.234375 861.210938 500.0625 852.394531 C 478.632812 829.289062 439.363281 845.09375 435.617188 878.335938 C 433.707031 895.316406 439.175781 904.863281 455.238281 912.558594 C 467.765625 918.558594 501.359375 919.710938 508.132812 914.371094 C 510.285156 912.671875 515.621094 910.429688 519.988281 909.390625 C 524.355469 908.347656 534.765625 901.007812 543.121094 893.074219 C 561.917969 875.234375 567.296875 856.902344 560.933594 832.367188 C 557.347656 818.546875 543.007812 796.277344 531.773438 787.089844 C 516.460938 774.5625 489.492188 765.574219 457.613281 762.363281 C 421.332031 758.710938 422.679688 758.710938 396.984375 762.394531 M 1092.042969 940.992188 C 1081.304688 942.382812 1069.042969 944.820312 1064.792969 946.417969 C 1060.546875 948.011719 1051.492188 950.089844 1044.675781 951.035156 C 1030.769531 952.964844 1006.890625 962.738281 994.074219 971.742188 C 976.613281 984.011719 962.152344 1014.785156 969.273438 1024.523438 C 972.875 1029.453125 977.460938 1029.910156 1013.664062 1028.992188 C 1039.898438 1028.320312 1054.800781 1026.738281 1056.21875 1024.464844 C 1057.734375 1022.03125 1053.8125 1020.6875 1043.351562 1020.050781 C 1014.789062 1018.3125 1025.066406 1014.476562 1086.847656 1003.832031 C 1111.523438 999.578125 1111.496094 999.359375 1089.511719 1025.003906 C 1085.703125 1029.441406 1076.886719 1040.570312 1069.914062 1049.730469 C 1049.207031 1076.933594 1038.800781 1086.0625 1028.515625 1086.0625 C 1013.316406 1086.0625 997.082031 1094.519531 988.183594 1107.078125 C 977.730469 1121.824219 977.496094 1130.535156 987.425781 1135.0625 C 996.417969 1139.160156 996.664062 1140.605469 989.699219 1148.324219 C 974.179688 1165.519531 946.550781 1209.695312 946.550781 1217.3125 C 946.550781 1223.957031 957.007812 1228.90625 966.175781 1226.605469 C 975.160156 1224.351562 987.394531 1210.6875 993.488281 1196.109375 C 995.859375 1190.425781 999.558594 1183.867188 1001.699219 1181.535156 C 1003.839844 1179.207031 1009.609375 1171.753906 1014.515625 1164.972656 C 1025.332031 1150.019531 1020.351562 1149.035156 1085.835938 1179.066406 C 1094.992188 1183.265625 1112.707031 1191.273438 1125.195312 1196.855469 C 1137.6875 1202.441406 1162.6875 1214.449219 1180.757812 1223.535156 C 1198.824219 1232.628906 1215.332031 1239.40625 1217.4375 1238.597656 C 1223.613281 1236.226562 1228.144531 1223.121094 1228.144531 1207.640625 C 1228.144531 1185.132812 1223.328125 1178.269531 1199.378906 1166.667969 C 1167.585938 1151.265625 1145.757812 1141.550781 1137.308594 1139.042969 C 1133.144531 1137.808594 1128.375 1135.847656 1126.710938 1134.679688 C 1125.046875 1133.515625 1109.480469 1127.890625 1092.125 1122.183594 L 1060.570312 1111.800781 L 1081.527344 1109.449219 C 1219.828125 1093.914062 1261.441406 1077.894531 1281.539062 1032.449219 C 1308.738281 970.941406 1261.257812 937.035156 1149.421875 938.101562 C 1128.605469 938.300781 1102.785156 939.601562 1092.042969 940.992188 M 1363.28125 949.375 C 1359.984375 953.019531 1355.558594 954.492188 1350.699219 953.5625 C 1345.621094 952.589844 1343.207031 953.492188 1343.207031 956.359375 C 1343.207031 958.6875 1339.117188 962.136719 1334.121094 964.023438 C 1329.125 965.90625 1325.039062 968.871094 1325.039062 970.613281 C 1325.039062 972.355469 1330.277344 979.285156 1336.679688 986.015625 C 1344.582031 994.320312 1350.910156 998.253906 1356.363281 998.253906 C 1360.785156 998.253906 1364.402344 996.890625 1364.402344 995.226562 C 1364.402344 993.5625 1360.445312 992.199219 1355.613281 992.199219 C 1349.003906 992.199219 1345.277344 989.761719 1340.566406 982.359375 C 1334.910156 973.46875 1334.792969 972.410156 1339.386719 971.417969 C 1346.265625 969.929688 1358.839844 961.632812 1364.464844 954.878906 C 1368.890625 949.5625 1369.390625 949.640625 1377.109375 956.792969 C 1381.53125 960.886719 1389.335938 966.09375 1394.453125 968.359375 C 1399.574219 970.628906 1403.765625 973.328125 1403.765625 974.363281 C 1403.765625 979.277344 1390.570312 992.199219 1385.554688 992.199219 C 1382.445312 992.199219 1379.058594 993.5625 1378.027344 995.226562 C 1376.890625 997.0625 1381.191406 998.253906 1388.953125 998.253906 C 1395.988281 998.253906 1400.898438 997.402344 1399.859375 996.367188 C 1398.820312 995.328125 1401.316406 990.089844 1405.410156 984.726562 C 1414.898438 972.285156 1414.859375 965.570312 1405.277344 963.164062 C 1401.113281 962.121094 1397.707031 959.367188 1397.707031 957.050781 C 1397.707031 954.425781 1394.421875 952.835938 1388.996094 952.835938 C 1384.203125 952.835938 1378.585938 950.792969 1376.511719 948.292969 C 1371.613281 942.390625 1369.441406 942.566406 1363.28125 949.375 M 1937.484375 961.566406 C 1909.121094 983.988281 1879.148438 1024.578125 1858.117188 1069.0625 C 1845.980469 1094.722656 1833.847656 1128.574219 1833.765625 1136.996094 C 1833.652344 1148.492188 1803.539062 1163.921875 1784.523438 1162.234375 C 1780.570312 1161.878906 1779.222656 1159.054688 1779.222656 1151.101562 C 1779.222656 1142.890625 1782.710938 1136 1794.363281 1121.171875 C 1810.417969 1100.742188 1812.386719 1093.28125 1804.78125 1081.675781 C 1800.371094 1074.941406 1800.46875 1074.347656 1806.296875 1072.496094 C 1820.390625 1068.019531 1809.417969 1040.546875 1793.605469 1040.71875 C 1778.226562 1040.886719 1742.988281 1052.222656 1727.75 1061.90625 C 1725.253906 1063.496094 1719.121094 1067.050781 1714.125 1069.8125 C 1688.75 1083.839844 1651.015625 1118.820312 1643.921875 1134.894531 C 1639.609375 1144.667969 1614.980469 1161.761719 1605.21875 1161.761719 C 1590.699219 1161.761719 1594.253906 1146.023438 1615.398438 1116.660156 C 1649.960938 1068.664062 1649.722656 1069.121094 1647.070312 1055.84375 C 1644.804688 1044.523438 1636.144531 1041.542969 1625.410156 1048.386719 C 1620.910156 1051.253906 1600.785156 1070.101562 1580.683594 1090.269531 C 1560.582031 1110.4375 1540.144531 1129.96875 1535.261719 1133.671875 C 1501.949219 1158.953125 1497.628906 1160.578125 1497.628906 1147.832031 C 1497.628906 1142.828125 1501.3125 1136.488281 1507.75 1130.421875 C 1562.265625 1079.046875 1569.832031 1069.246094 1561.449219 1060.863281 C 1559.488281 1058.902344 1550.371094 1057.300781 1541.191406 1057.300781 C 1525.046875 1057.300781 1524.035156 1057.796875 1510.308594 1072.53125 C 1482.179688 1102.710938 1469.554688 1119.378906 1465.890625 1131.167969 C 1462.835938 1140.988281 1451.417969 1150.457031 1428.492188 1162.195312 C 1413.558594 1169.835938 1408.195312 1171.289062 1404.265625 1168.75 C 1397.355469 1164.285156 1398.273438 1147.414062 1406.363281 1130.207031 C 1409.929688 1122.617188 1412.847656 1115.144531 1412.847656 1113.601562 C 1412.847656 1112.054688 1413.921875 1110.339844 1415.230469 1109.78125 C 1416.542969 1109.226562 1421.460938 1102.144531 1426.160156 1094.046875 L 1434.703125 1079.316406 L 1448.921875 1081.203125 C 1461.746094 1082.902344 1463.910156 1082.269531 1470.996094 1074.738281 C 1479.136719 1066.074219 1497.628906 1038.023438 1497.628906 1034.328125 C 1497.628906 1033.167969 1494.222656 1031.363281 1490.058594 1030.316406 C 1481.191406 1028.09375 1480.363281 1022.800781 1487.789062 1015.796875 C 1504.863281 999.675781 1504.765625 991.152344 1487.484375 989.726562 C 1473.511719 988.578125 1460.574219 996.476562 1448.167969 1013.734375 C 1440.183594 1024.839844 1438.808594 1025.507812 1423.816406 1025.507812 C 1406.871094 1025.507812 1387.511719 1033.0625 1379.292969 1042.890625 C 1369.859375 1054.160156 1360.566406 1073.542969 1362.359375 1078.210938 C 1363.8125 1081.988281 1365.804688 1082.351562 1372.058594 1079.976562 C 1376.390625 1078.328125 1384.699219 1076.980469 1390.523438 1076.980469 L 1401.113281 1076.980469 L 1391.46875 1090.414062 C 1379.082031 1107.660156 1347.601562 1140.089844 1334.046875 1149.570312 C 1328.261719 1153.617188 1322.84375 1157.875 1322.011719 1159.03125 C 1321.179688 1160.1875 1314.675781 1162.699219 1307.566406 1164.609375 C 1290.707031 1169.140625 1278.546875 1164.046875 1277.144531 1151.871094 C 1276.351562 1144.980469 1279.839844 1139.960938 1297.25 1122.921875 C 1319.476562 1101.175781 1335.683594 1074.550781 1332.597656 1064.839844 C 1330.308594 1057.632812 1321.269531 1054.683594 1308.695312 1057.042969 C 1295.546875 1059.507812 1267.816406 1084.714844 1252.558594 1108.066406 C 1240.789062 1126.078125 1240.257812 1127.929688 1240.257812 1150.941406 C 1240.257812 1182.382812 1247.820312 1199.382812 1265.289062 1207.203125 C 1277.140625 1212.507812 1282.585938 1212.195312 1299.5 1205.21875 C 1309.855469 1200.945312 1334.914062 1179.761719 1347.722656 1164.449219 C 1354.347656 1156.53125 1360.125 1150.421875 1360.570312 1150.863281 C 1361.011719 1151.308594 1358.648438 1159.976562 1355.316406 1170.132812 C 1350.503906 1184.792969 1349.921875 1190.355469 1352.496094 1197.125 C 1358.089844 1211.84375 1364.1875 1216.265625 1378.882812 1216.265625 C 1396.140625 1216.265625 1416.929688 1204.652344 1443.871094 1179.964844 L 1463.824219 1161.683594 L 1465.84375 1170.878906 C 1468.308594 1182.097656 1480.941406 1197.65625 1490.546875 1201.308594 C 1501.761719 1205.574219 1512.046875 1199.695312 1536.039062 1175.308594 C 1548.21875 1162.925781 1558.1875 1153.425781 1558.1875 1154.191406 C 1558.1875 1154.957031 1556.046875 1160.933594 1553.433594 1167.46875 C 1546.792969 1184.054688 1548.742188 1197.617188 1558.839844 1205.121094 C 1572.523438 1215.292969 1591.136719 1207.457031 1627.5 1176.214844 C 1634.8125 1169.929688 1641.625 1164.8125 1642.640625 1164.839844 C 1643.652344 1164.863281 1647.890625 1171.839844 1652.050781 1180.339844 C 1663.988281 1204.710938 1677.496094 1212.195312 1693.472656 1203.289062 C 1697.097656 1201.265625 1710.617188 1189.441406 1723.515625 1177.011719 C 1740.53125 1160.609375 1746.300781 1156.453125 1744.535156 1161.871094 C 1739.894531 1176.144531 1739.152344 1198.683594 1743.082031 1206.03125 C 1751.632812 1222.003906 1779.074219 1212.902344 1813.34375 1182.734375 C 1827.417969 1170.347656 1831.886719 1167.84375 1833.984375 1171.15625 C 1835.457031 1173.484375 1836.683594 1177.160156 1836.710938 1179.324219 C 1836.785156 1185.707031 1846.082031 1201.851562 1853.027344 1207.65625 C 1861.515625 1214.746094 1879.621094 1214.667969 1893.648438 1207.476562 C 1899.824219 1204.3125 1912.996094 1194.09375 1922.910156 1184.769531 C 1932.828125 1175.445312 1941.769531 1167.816406 1942.789062 1167.816406 C 1943.804688 1167.816406 1946.847656 1172.449219 1949.546875 1178.117188 C 1960.148438 1200.347656 1990.832031 1213.792969 2015.691406 1207.105469 C 2036.28125 1201.5625 2064.734375 1183.738281 2090.289062 1160.371094 C 2096.226562 1154.941406 2100.15625 1137.539062 2095.441406 1137.539062 C 2093.101562 1137.539062 2080.859375 1144.074219 2078.988281 1146.320312 C 2071.5625 1155.234375 2029.585938 1173.929688 2025.707031 1170.050781 C 2024.929688 1169.273438 2027.96875 1166.230469 2032.457031 1163.289062 C 2043.65625 1155.953125 2063.382812 1134.914062 2069.375 1123.914062 C 2075.863281 1112.011719 2075.542969 1076.660156 2068.804688 1060.714844 C 2066.074219 1054.265625 2063.847656 1045.707031 2063.847656 1041.691406 C 2063.847656 1032.894531 2058.132812 1030.257812 2044.578125 1032.796875 C 2036.421875 1034.328125 2033.355469 1037.101562 2028.902344 1046.976562 C 2021.011719 1064.472656 1940.585938 1144.089844 1907.445312 1167.210938 C 1902.191406 1170.875 1895.128906 1173.875 1891.753906 1173.875 C 1883.125 1173.875 1873.089844 1158.484375 1873.089844 1145.25 C 1873.089844 1135.683594 1876.542969 1130.339844 1899.140625 1104.960938 C 1924.375 1076.617188 1947.804688 1043.996094 1955.507812 1026.464844 C 1957.574219 1021.777344 1960.367188 1017.144531 1961.714844 1016.171875 C 1965.992188 1013.089844 1974.160156 966.847656 1971.964844 958.136719 C 1968.816406 945.636719 1956.03125 946.90625 1937.484375 961.566406 M 1140.019531 997.230469 C 1137.34375 997.945312 1133.402344 1003.855469 1131.257812 1010.359375 C 1129.109375 1016.867188 1117.832031 1033.886719 1106.199219 1048.183594 C 1094.5625 1062.476562 1085.699219 1074.828125 1086.5 1075.628906 C 1088.03125 1077.160156 1107.492188 1073.605469 1140.335938 1065.796875 C 1151.160156 1063.21875 1167.511719 1059.484375 1176.671875 1057.496094 C 1185.832031 1055.507812 1197.160156 1052.265625 1201.847656 1050.292969 C 1206.535156 1048.316406 1211.171875 1046.703125 1212.144531 1046.703125 C 1219.5 1046.703125 1247.347656 1029.265625 1250.867188 1022.453125 C 1257.164062 1010.28125 1251.59375 1005.078125 1226.632812 999.808594 C 1207.320312 995.730469 1151.800781 994.078125 1140.019531 997.230469 M 1928.589844 1008.09375 C 1917.265625 1020.113281 1899.5 1050.453125 1894.332031 1066.59375 C 1892.238281 1073.136719 1889.328125 1079.789062 1887.863281 1081.371094 C 1886.398438 1082.953125 1885.203125 1085.59375 1885.203125 1087.242188 C 1885.203125 1088.886719 1888.253906 1086.960938 1891.980469 1082.957031 C 1900.523438 1073.789062 1924.5625 1041.234375 1924.5625 1038.835938 C 1924.5625 1037.847656 1927.132812 1033.421875 1930.277344 1029 C 1936.5625 1020.15625 1943.527344 998.253906 1940.054688 998.253906 C 1938.851562 998.253906 1933.691406 1002.683594 1928.589844 1008.09375 M 834.519531 1090.34375 C 830.355469 1092.613281 815.339844 1099.984375 801.148438 1106.722656 C 765.035156 1123.875 747.496094 1137.824219 744.945312 1151.429688 C 739.261719 1181.730469 773.28125 1167.277344 816.890625 1120.871094 C 847.546875 1088.246094 851.753906 1080.960938 834.519531 1090.34375 M 1744.402344 1099.433594 C 1693.761719 1125.726562 1679.304688 1138.539062 1679.304688 1157.117188 C 1679.304688 1181.0625 1715.457031 1158.246094 1758.820312 1106.933594 C 1780.152344 1081.6875 1779.371094 1081.285156 1744.402344 1099.433594 M 677.066406 1095.679688 C 665.292969 1102.890625 625.59375 1142.585938 625.59375 1147.152344 C 625.59375 1148.75 628.007812 1149.292969 630.960938 1148.355469 C 633.914062 1147.417969 641.039062 1148 646.792969 1149.652344 C 656.769531 1152.515625 657.800781 1152.050781 668.792969 1139.796875 C 703.421875 1101.191406 708.007812 1076.742188 677.066406 1095.679688 M 1998.167969 1113.671875 C 1974.503906 1136.863281 1973.777344 1137.980469 1980.613281 1140.578125 C 1984.535156 1142.070312 1990.738281 1147.34375 1994.398438 1152.292969 L 2001.054688 1161.296875 L 2011.195312 1154.714844 C 2024.617188 1146.007812 2031.5625 1128.722656 2029.03125 1110.328125 C 2027.976562 1102.652344 2026.152344 1094.820312 2024.980469 1092.925781 C 2023.640625 1090.75 2013.734375 1098.414062 1998.167969 1113.671875 M 1051.011719 1299.960938 C 1041.019531 1304.222656 1030.800781 1309.457031 1028.304688 1311.59375 C 1025.804688 1313.730469 1015.929688 1317.71875 1006.351562 1320.457031 C 990.691406 1324.9375 982.957031 1331.164062 992.726562 1331.425781 C 994.808594 1331.480469 993.339844 1334.167969 989.46875 1337.394531 C 983.183594 1342.632812 982.617188 1349.492188 988.464844 1349.492188 C 989.671875 1349.492188 998.0625 1344.722656 1007.109375 1338.894531 C 1018.007812 1331.871094 1027.179688 1328.296875 1034.289062 1328.296875 C 1044.378906 1328.296875 1045.015625 1328.882812 1044.988281 1338.136719 C 1044.945312 1351.695312 1052.566406 1351.007812 1059.230469 1336.851562 C 1062.109375 1330.738281 1067.234375 1324.855469 1070.609375 1323.78125 C 1077.488281 1321.597656 1078.703125 1317.339844 1072.992188 1315.4375 C 1070.292969 1314.539062 1070.714844 1312.703125 1074.507812 1308.910156 C 1081.421875 1301.996094 1081.40625 1291.921875 1074.480469 1292.085938 C 1071.566406 1292.15625 1061.003906 1295.699219 1051.011719 1299.960938 M 1247.6875 1299.761719 C 1239.617188 1304.050781 1228.207031 1312.234375 1222.328125 1317.945312 C 1212.292969 1327.691406 1211.5 1327.953125 1209.390625 1322.257812 C 1206.453125 1314.316406 1193.753906 1314.285156 1179.023438 1322.175781 L 1167.84375 1328.171875 L 1163.367188 1321.78125 C 1160.375 1317.507812 1157.070312 1316.03125 1153.398438 1317.328125 C 1150.378906 1318.394531 1152.347656 1315.507812 1157.773438 1310.914062 C 1168.816406 1301.5625 1170.496094 1294.988281 1161.835938 1294.988281 C 1155.0625 1294.988281 1110.058594 1336.039062 1110.058594 1342.222656 C 1110.058594 1348.390625 1118.191406 1347.414062 1125.195312 1340.40625 C 1132.347656 1333.257812 1134.28125 1332.867188 1134.28125 1338.570312 C 1134.28125 1344.8125 1141.949219 1346.644531 1152.59375 1342.933594 C 1159.4375 1340.542969 1162.914062 1340.582031 1165.394531 1343.058594 C 1171.0625 1348.730469 1183.988281 1346.898438 1194.839844 1338.894531 C 1206.679688 1330.15625 1208.21875 1329.707031 1205.9375 1335.644531 C 1203.378906 1342.316406 1211.621094 1347.25 1221.652344 1345.046875 C 1231.152344 1342.960938 1241.867188 1333.34375 1239.304688 1329.203125 C 1238.453125 1327.828125 1245.988281 1322.140625 1256.046875 1316.570312 C 1266.101562 1311 1273.484375 1307.804688 1272.449219 1309.480469 C 1270.085938 1313.304688 1278.109375 1316.574219 1284.164062 1314.253906 C 1290.65625 1311.757812 1289.78125 1304.074219 1283.003906 1304.074219 C 1279.84375 1304.074219 1276.59375 1301.371094 1275.714844 1298.015625 C 1273.578125 1289.855469 1265.355469 1290.367188 1247.6875 1299.761719 M 1623.289062 1298.007812 C 1616.625 1301.328125 1604.542969 1309.75 1596.4375 1316.714844 C 1588.328125 1323.679688 1578.53125 1329.515625 1574.664062 1329.6875 C 1569.488281 1329.914062 1568.4375 1329.027344 1570.675781 1326.328125 C 1576.425781 1319.402344 1563.058594 1315.578125 1549.460938 1320.261719 C 1538.960938 1323.882812 1536.835938 1323.816406 1532.765625 1319.742188 C 1528.558594 1315.539062 1527.535156 1315.582031 1522.457031 1320.179688 C 1519.359375 1322.984375 1515.792969 1324.257812 1514.542969 1323.003906 C 1509.582031 1318.042969 1483.992188 1319.828125 1474.164062 1325.820312 C 1457.726562 1335.839844 1462.757812 1350.363281 1480.347656 1343.675781 C 1485.855469 1341.578125 1488.953125 1341.648438 1490.339844 1343.882812 C 1493.074219 1348.3125 1512.183594 1344.90625 1518.953125 1338.777344 C 1523.996094 1334.214844 1524.867188 1334.335938 1531.050781 1340.523438 C 1536.691406 1346.164062 1539.835938 1346.898438 1551.542969 1345.292969 C 1559.144531 1344.25 1568.683594 1341.222656 1572.746094 1338.5625 C 1576.804688 1335.898438 1579.296875 1335.074219 1578.273438 1336.722656 C 1575.007812 1342.011719 1584.691406 1347.109375 1594.082031 1345.046875 C 1603.75 1342.925781 1614.28125 1333.320312 1611.636719 1329.042969 C 1610.734375 1327.578125 1614.855469 1324.175781 1620.800781 1321.480469 L 1631.609375 1316.582031 L 1623.382812 1325.167969 C 1608.28125 1340.933594 1617.941406 1351.441406 1638.542969 1341.664062 C 1646.40625 1337.933594 1649.097656 1334.957031 1648.09375 1331.109375 C 1647.148438 1327.492188 1648.792969 1325.21875 1653.15625 1324.121094 C 1656.710938 1323.226562 1665.414062 1318.230469 1672.492188 1313.019531 C 1693.75 1297.371094 1687.371094 1286.769531 1663.148438 1297.484375 C 1649.863281 1303.363281 1649.546875 1303.367188 1648.070312 1297.722656 C 1646.140625 1290.335938 1638.492188 1290.421875 1623.289062 1298.007812 M 1736.753906 1300.046875 C 1720.105469 1311.292969 1691.414062 1338.1875 1691.414062 1342.542969 C 1691.414062 1346.355469 1694.699219 1346.953125 1709.671875 1345.871094 C 1720.742188 1345.070312 1729.8125 1342.671875 1732.707031 1339.773438 C 1737.054688 1335.425781 1737.996094 1335.515625 1743.214844 1340.730469 C 1749.753906 1347.273438 1761.628906 1348.058594 1776.335938 1342.933594 C 1784.042969 1340.246094 1786.738281 1340.246094 1787.636719 1342.933594 C 1789.390625 1348.203125 1794.910156 1347.210938 1801.828125 1340.378906 C 1805.214844 1337.027344 1811.394531 1331.675781 1815.558594 1328.480469 C 1821.5 1323.921875 1822.34375 1321.867188 1819.464844 1318.945312 C 1816.574219 1316.003906 1813.390625 1316.808594 1804.324219 1322.785156 C 1792.425781 1330.636719 1785.28125 1330.902344 1785.28125 1323.503906 C 1785.28125 1315.792969 1762.972656 1317.128906 1751.214844 1325.546875 C 1742.988281 1331.4375 1742.890625 1331.4375 1742.890625 1325.609375 C 1742.890625 1322.371094 1741.1875 1319.007812 1739.105469 1318.140625 C 1736.453125 1317.035156 1737.128906 1315.183594 1741.375 1311.9375 C 1753.199219 1302.898438 1755.113281 1300.648438 1753.375 1297.835938 C 1750.769531 1293.617188 1745.164062 1294.363281 1736.753906 1300.046875 M 1341.691406 1310.128906 C 1336.695312 1313.4375 1330.222656 1316.15625 1327.308594 1316.164062 C 1324.386719 1316.175781 1322.011719 1318.453125 1322.011719 1321.246094 C 1322.011719 1324.027344 1319.78125 1328.773438 1317.050781 1331.789062 C 1313.007812 1336.253906 1312.796875 1338.117188 1315.90625 1341.863281 C 1320.105469 1346.925781 1333.207031 1347.910156 1339.910156 1343.667969 C 1342.542969 1342 1346.308594 1342.292969 1349.746094 1344.441406 C 1354.386719 1347.339844 1356.597656 1346.535156 1363.007812 1339.621094 C 1371.417969 1330.554688 1375.03125 1328.988281 1372.53125 1335.496094 C 1368.378906 1346.3125 1389.214844 1350.09375 1408.519531 1342.027344 C 1416.878906 1338.535156 1418.9375 1336.117188 1418.1875 1330.671875 C 1416.113281 1315.589844 1407 1312.167969 1391.050781 1320.484375 C 1384 1324.167969 1382.382812 1324.152344 1379.265625 1320.394531 C 1377.277344 1318 1375.019531 1316.667969 1374.25 1317.4375 C 1373.480469 1318.207031 1369.769531 1315.515625 1366.007812 1311.457031 C 1357.726562 1302.519531 1353.527344 1302.289062 1341.691406 1310.128906 M 1381.5625 1306.09375 C 1378.289062 1309.363281 1379.226562 1312.386719 1384.082031 1314.253906 C 1390.3125 1316.640625 1397.707031 1313.40625 1397.707031 1308.292969 C 1397.707031 1304.007812 1385.332031 1302.324219 1381.5625 1306.09375 M 1820.605469 1306.09375 C 1817.335938 1309.363281 1818.273438 1312.386719 1823.128906 1314.253906 C 1829.359375 1316.640625 1836.753906 1313.40625 1836.753906 1308.292969 C 1836.753906 1304.007812 1824.375 1302.324219 1820.605469 1306.09375 M 1279.621094 1322.242188 C 1272.480469 1329.378906 1266.96875 1330.203125 1269.441406 1323.753906 C 1272.3125 1316.273438 1259.941406 1318.324219 1249.574219 1327.050781 C 1239.839844 1335.242188 1237.039062 1346.464844 1244.730469 1346.464844 C 1247.1875 1346.464844 1251.46875 1343.007812 1254.234375 1338.78125 L 1259.269531 1331.101562 L 1262.722656 1338.023438 C 1265.625 1343.847656 1268.570312 1344.949219 1281.226562 1344.949219 C 1294.527344 1344.949219 1296.386719 1344.160156 1297.242188 1338.136719 C 1297.914062 1333.398438 1300.265625 1331.324219 1304.964844 1331.324219 C 1312.480469 1331.324219 1318.984375 1326.128906 1318.984375 1320.121094 C 1318.984375 1313.242188 1286.890625 1314.972656 1279.621094 1322.242188 M 1877.183594 1319.191406 C 1873.605469 1320.636719 1869.78125 1323.273438 1868.679688 1325.058594 C 1865.910156 1329.535156 1860.8125 1329.136719 1861.734375 1324.511719 C 1862.253906 1321.917969 1857.621094 1320.605469 1846.996094 1320.339844 C 1833.285156 1319.996094 1830.179688 1321.15625 1820.105469 1330.390625 C 1811.382812 1338.378906 1809.542969 1341.660156 1812.265625 1344.378906 C 1814.988281 1347.105469 1817.777344 1346.816406 1824.171875 1343.144531 C 1832.105469 1338.589844 1832.683594 1338.679688 1835.605469 1344.875 C 1837.71875 1349.355469 1837.667969 1353.019531 1835.445312 1356.585938 C 1832.996094 1360.519531 1833.3125 1362.480469 1836.753906 1364.671875 C 1844.828125 1369.816406 1853.21875 1367.878906 1869.636719 1357.0625 C 1878.488281 1351.234375 1886.542969 1346.464844 1887.539062 1346.464844 C 1888.53125 1346.464844 1895.226562 1343.617188 1902.410156 1340.140625 C 1914.90625 1334.089844 1920.15625 1325.269531 1911.261719 1325.269531 C 1908.941406 1325.269531 1906.261719 1323.226562 1905.300781 1320.726562 C 1903.375 1315.707031 1887.914062 1314.863281 1877.183594 1319.191406 M 1348.878906 1321.34375 C 1344.503906 1322.019531 1337.792969 1325.90625 1333.96875 1329.976562 C 1326.347656 1338.085938 1329.152344 1339.800781 1338.484375 1332.742188 C 1341.71875 1330.296875 1347.167969 1328.253906 1350.597656 1328.199219 C 1354.027344 1328.148438 1359.476562 1326.105469 1362.707031 1323.65625 C 1368.527344 1319.257812 1368.527344 1319.21875 1362.707031 1319.667969 C 1359.476562 1319.914062 1353.253906 1320.671875 1348.878906 1321.34375 M 1848.976562 1335.734375 C 1844.71875 1340.867188 1847.308594 1346.871094 1852.867188 1344.738281 C 1857.070312 1343.125 1859.039062 1331.324219 1855.105469 1331.324219 C 1853.746094 1331.324219 1850.988281 1333.308594 1848.976562 1335.734375 " fill-opacity="1" fill-rule="evenodd"/></svg>