<?xml version="1.0" encoding="UTF-8"?>
<svg version="1.1" xmlns="http://www.w3.org/2000/svg" width="512" height="512">
<path d="M0 0 C1.01790619 0.00215515 2.03581238 0.0043103 3.08456421 0.00653076 C17.69363523 0.05620146 32.02575853 0.30709809 46.375 3.3125 C47.34985352 3.51117676 48.32470703 3.70985352 49.32910156 3.91455078 C97.7109774 14.03517194 141.69928269 35.9516877 177.375 70.3125 C178.3640332 71.26068604 178.3640332 71.26068604 179.37304688 72.22802734 C188.86130305 81.37247479 197.6012044 90.66984009 205.375 101.3125 C206.23306152 102.46355017 207.09113451 103.61459177 207.94921875 104.765625 C213.98736829 112.95680614 219.34595521 121.47054105 224.375 130.3125 C224.73948242 130.94430176 225.10396484 131.57610352 225.47949219 132.22705078 C247.08534998 169.97532572 256.85198095 212.74189997 256.6875 255.9375 C256.68534485 256.95540619 256.6831897 257.97331238 256.68096924 259.02206421 C256.63129854 273.63113523 256.38040191 287.96325853 253.375 302.3125 C253.07698486 303.77478027 253.07698486 303.77478027 252.77294922 305.26660156 C242.65232806 353.6484774 220.7358123 397.63678269 186.375 433.3125 C185.74287598 433.97185547 185.11075195 434.63121094 184.45947266 435.31054688 C175.31502521 444.79880305 166.01765991 453.5387044 155.375 461.3125 C154.22394983 462.17056152 153.07290823 463.02863451 151.921875 463.88671875 C143.73224019 469.92427396 135.22961724 475.30707302 126.375 480.3125 C125.66778809 480.7146875 124.96057617 481.116875 124.23193359 481.53125 C101.09654164 494.5566741 75.92537591 503.30551461 49.9375 508.625 C49.21860596 508.77235596 48.49971191 508.91971191 47.7590332 509.0715332 C33.08339502 511.86090125 18.55831162 512.66142619 3.64770508 512.62817383 C0.70811513 512.6250221 -2.2304558 512.64854926 -5.16992188 512.67382812 C-18.54306192 512.71848737 -31.43916711 511.51301542 -44.625 509.3125 C-46.33055054 509.03031616 -46.33055054 509.03031616 -48.07055664 508.74243164 C-91.33802759 500.97044532 -132.38793216 480.98345309 -165.625 452.3125 C-166.37007813 451.67828125 -167.11515625 451.0440625 -167.8828125 450.390625 C-181.38779833 438.57948485 -194.05918743 425.82889772 -204.625 411.3125 C-205.48149066 410.16255169 -206.33826433 409.01281411 -207.1953125 407.86328125 C-213.23534209 399.67315742 -218.61867614 391.16870382 -223.625 382.3125 C-224.0271875 381.60528809 -224.429375 380.89807617 -224.84375 380.16943359 C-237.8691741 357.03404164 -246.61801461 331.86287591 -251.9375 305.875 C-252.08485596 305.15610596 -252.23221191 304.43721191 -252.3840332 303.6965332 C-255.35789088 288.05024391 -255.99800362 272.57681954 -255.9375 256.6875 C-255.93534485 255.66959381 -255.9331897 254.65168762 -255.93096924 253.60293579 C-255.88129854 238.99386477 -255.63040191 224.66174147 -252.625 210.3125 C-252.42632324 209.33764648 -252.22764648 208.36279297 -252.02294922 207.35839844 C-241.90232806 158.9765226 -219.9858123 114.98821731 -185.625 79.3125 C-184.99287598 78.65314453 -184.36075195 77.99378906 -183.70947266 77.31445312 C-174.56502521 67.82619695 -165.26765991 59.0862956 -154.625 51.3125 C-153.47394983 50.45443848 -152.32290823 49.59636549 -151.171875 48.73828125 C-142.98224019 42.70072604 -134.47961724 37.31792698 -125.625 32.3125 C-124.91778809 31.9103125 -124.21057617 31.508125 -123.48193359 31.09375 C-100.34654164 18.0683259 -75.17537591 9.31948539 -49.1875 4 C-48.46860596 3.85264404 -47.74971191 3.70528809 -47.0090332 3.5534668 C-31.36274391 0.57960912 -15.88931954 -0.06050362 0 0 Z M-11.5 100.75 C-14.32113953 104.15196238 -14.74972374 106.57729421 -14.76544189 110.85360718 C-14.77115204 111.78447647 -14.77686218 112.71534576 -14.78274536 113.67442322 C-14.78386322 114.69371414 -14.78498108 115.71300507 -14.78613281 116.76318359 C-14.79109772 117.83823654 -14.79606262 118.91328949 -14.80117798 120.0209198 C-14.81580663 123.5842655 -14.82260245 127.14756669 -14.828125 130.7109375 C-14.83387543 133.18331911 -14.83963318 135.6557007 -14.84539795 138.12808228 C-14.85590964 143.31488249 -14.86175136 148.50166719 -14.86523438 153.68847656 C-14.87072246 160.33891639 -14.89475654 166.98908586 -14.92320633 173.63947105 C-14.94181659 178.74722902 -14.94703743 183.85493758 -14.94857025 188.96272659 C-14.95160044 191.4147618 -14.95964123 193.86679606 -14.97275543 196.31879807 C-14.98978344 199.74703346 -14.98794347 203.17476698 -14.98144531 206.60302734 C-14.9906601 207.61826981 -14.99987488 208.63351227 -15.0093689 209.67951965 C-14.97010194 216.48668848 -14.97010194 216.48668848 -11.625 222.3125 C-7.03697962 226.54759573 -3.75892458 227.44746295 2.359375 227.41015625 C3.76123047 227.40532227 3.76123047 227.40532227 5.19140625 227.40039062 C6.15949219 227.39201172 7.12757813 227.38363281 8.125 227.375 C9.60033203 227.36823242 9.60033203 227.36823242 11.10546875 227.36132812 C13.52870791 227.34956483 15.95182273 227.33312684 18.375 227.3125 C18.64143311 228.02043701 18.90786621 228.72837402 19.18237305 229.45776367 C20.42690888 232.43675189 21.87783634 235.17284907 23.45703125 237.98828125 C24.05966797 239.06400391 24.66230469 240.13972656 25.28320312 241.24804688 C25.91162109 242.36244141 26.54003906 243.47683594 27.1875 244.625 C27.80431641 245.72779297 28.42113281 246.83058594 29.05664062 247.96679688 C30.81240628 251.09209706 32.5892734 254.204244 34.375 257.3125 C34.84470215 258.15087402 35.3144043 258.98924805 35.79833984 259.85302734 C37.87698267 263.72943342 37.87698267 263.72943342 41.37426758 266.12329102 C43.58184399 266.55619193 43.58184399 266.55619193 45.6875 264.609375 C49.6933531 260.16863571 52.43827694 254.73314061 55.375 249.5625 C55.97828125 248.51578125 56.5815625 247.4690625 57.203125 246.390625 C60.65027057 240.39558923 64.02289598 234.36101668 67.375 228.3125 C68.37200928 228.30885437 69.36901855 228.30520874 70.39624023 228.30145264 C79.81227392 228.26444098 89.22798242 228.20660101 98.64376831 228.12859726 C103.48404252 228.0891619 108.32413587 228.05695411 113.16455078 228.04150391 C117.83968677 228.02631134 122.51432542 227.99181974 127.1892395 227.94419098 C128.96887885 227.92940396 130.74858922 227.92146053 132.52828979 227.92061615 C135.02980993 227.9182366 137.52996656 227.89107945 140.03125 227.85839844 C140.75989761 227.8634288 141.48854523 227.86845917 142.23927307 227.87364197 C147.63108002 227.76532363 151.86749338 226.30818203 156.375 223.3125 C161.05583592 217.42370642 160.52373939 210.56537338 160.52026367 203.40087891 C160.52362228 202.40677505 160.5269809 201.4126712 160.53044128 200.38844299 C160.53993273 197.10530342 160.54189347 193.82221494 160.54296875 190.5390625 C160.54618248 188.25369241 160.54954664 185.96832253 160.55305481 183.68295288 C160.55904148 178.89312259 160.56089517 174.10331033 160.56030273 169.31347656 C160.56020111 163.18125528 160.57385526 157.04914979 160.59107494 150.91695595 C160.60220268 146.19686351 160.60422171 141.476799 160.60369301 136.75669479 C160.60487188 134.49611385 160.60928844 132.23553215 160.61702538 129.97496414 C160.62684112 126.81086401 160.62394089 123.64701447 160.61791992 120.48291016 C160.62353943 119.55280624 160.62915894 118.62270233 160.63494873 117.66441345 C160.60374063 111.19841751 160.28927258 105.77370761 156.1875 100.5 C149.14078843 95.01922433 140.62308662 96.02690704 132.10546875 96.05371094 C130.65768254 96.05099796 129.20989771 96.04743531 127.76211548 96.04309082 C123.84479489 96.03400097 119.92758007 96.03749698 116.01025772 96.04384899 C111.90291314 96.04892664 107.79557737 96.04421264 103.68823242 96.04107666 C96.79181296 96.03744216 89.89543638 96.04222257 82.99902344 96.05175781 C75.03566774 96.06264137 67.07241446 96.05911543 59.10906124 96.048105 C52.2613001 96.03901743 45.41356971 96.03775404 38.56580448 96.04298234 C34.4805693 96.04609396 30.3953822 96.04653364 26.31015015 96.03990936 C22.46875611 96.03411512 18.62749363 96.03817069 14.78611374 96.04969788 C13.37967522 96.05233337 11.97322556 96.05159842 10.56679153 96.04717255 C-1.28111559 95.65877875 -1.28111559 95.65877875 -11.5 100.75 Z M-89.90234375 103.3359375 C-90.79042725 103.51817871 -91.67851074 103.70041992 -92.59350586 103.88818359 C-93.59909546 104.09822021 -93.59909546 104.09822021 -94.625 104.3125 C-93.62511256 107.98310359 -92.62507676 111.65366674 -91.625 115.32421875 C-91.15751595 117.04012459 -91.15751595 117.04012459 -90.68058777 118.79069519 C-88.97162588 125.06230959 -87.26118299 131.33351502 -85.5480957 137.60400391 C-84.8614746 140.11750857 -84.17486967 142.63101766 -83.48828125 145.14453125 C-83.15033035 146.38162842 -82.81237946 147.61872559 -82.46418762 148.89331055 C-80.80390156 154.97568099 -79.15013495 161.05961988 -77.51779175 167.14955139 C-76.9497796 169.26807341 -76.37882647 171.3857758 -75.80664062 173.50317383 C-75.15962627 175.90103574 -74.51867768 178.30054534 -73.88476562 180.7019043 C-73.60697266 181.72582275 -73.32917969 182.74974121 -73.04296875 183.8046875 C-72.81375732 184.66433105 -72.5845459 185.52397461 -72.34838867 186.40966797 C-71.79603191 188.5091224 -71.79603191 188.5091224 -69.625 189.3125 C-67.0153129 188.38533534 -64.57594117 187.39120031 -62.0625 186.25 C-61.36447266 185.96189453 -60.66644531 185.67378906 -59.94726562 185.37695312 C-57.64319332 184.39432245 -57.64319332 184.39432245 -54.625 182.3125 C-53.17979944 177.51398846 -53.94214031 174.01506127 -55.29980469 169.26904297 C-55.48991119 168.59184204 -55.6800177 167.91464111 -55.87588501 167.21691895 C-56.50390369 164.99246158 -57.14985642 162.77368607 -57.796875 160.5546875 C-58.24037125 159.00367064 -58.68300558 157.45240708 -59.12481689 155.90090942 C-60.05187779 152.65572907 -60.98753146 149.41319246 -61.9296875 146.17236328 C-63.13561505 142.02257174 -64.32270699 137.86768144 -65.50376511 133.71075249 C-66.41517821 130.50896486 -67.33511937 127.30967826 -68.25778961 124.11111832 C-68.6986415 122.57999837 -69.13717465 121.04820878 -69.57332611 119.51574326 C-70.1846645 117.37367123 -70.80707453 115.23512852 -71.43261719 113.09716797 C-71.78426941 111.88060516 -72.13592163 110.66404236 -72.49822998 109.41061401 C-73.5635945 106.48133769 -74.43670295 104.51979166 -76.625 102.3125 C-81.31864825 101.81843176 -85.29799969 102.38383989 -89.90234375 103.3359375 Z M-113.0703125 110.66235352 C-113.76898438 111.02127686 -114.46765625 111.3802002 -115.1875 111.75 C-115.90550781 112.11472412 -116.62351563 112.47944824 -117.36328125 112.85522461 C-123.4013368 116.01610868 -128.52761495 119.78868641 -133.625 124.3125 C-134.61306641 125.08787109 -134.61306641 125.08787109 -135.62109375 125.87890625 C-147.484159 135.40277554 -157.25312956 149.21010747 -159.23828125 164.44921875 C-159.74878416 169.34141424 -159.36087165 173.83920866 -158.625 178.6875 C-158.49254883 179.57816162 -158.36009766 180.46882324 -158.22363281 181.38647461 C-153.96270025 207.91736653 -145.10804122 233.12427569 -133.625 257.3125 C-133.29387207 258.01858398 -132.96274414 258.72466797 -132.62158203 259.45214844 C-122.90638073 280.06672998 -110.32624475 298.92959497 -95.625 316.3125 C-94.7003579 317.42434368 -93.77588704 318.5363298 -92.8515625 319.6484375 C-83.54939428 330.75880257 -73.7258381 341.15856562 -62.33203125 350.15625 C-60.52569834 351.59506063 -58.75143907 353.07507038 -57.01171875 354.59375 C-43.01694184 366.78721899 -27.0078059 376.66152743 -10.625 385.3125 C-10.02010742 385.63879395 -9.41521484 385.96508789 -8.79199219 386.30126953 C17.87024994 400.62778097 47.50009397 410.53630682 77.375 415.3125 C79.00115234 415.57353516 79.00115234 415.57353516 80.66015625 415.83984375 C94.57495279 417.58163966 106.78183561 412.78837338 117.7109375 404.4453125 C131.45223816 393.44421256 143.66945187 379.66420871 148.375 362.3125 C143.15742429 360.29417788 137.95041265 358.52658102 132.55371094 357.04418945 C131.81769653 356.83892639 131.08168213 356.63366333 130.32336426 356.42218018 C127.91971998 355.75298055 125.51464083 355.08912697 123.109375 354.42578125 C121.42640525 353.95941473 119.74348365 353.49287443 118.06060791 353.02616882 C114.54791931 352.05297871 111.03447682 351.08256988 107.52050781 350.11401367 C103.01748531 348.87249754 98.51673086 347.62296727 94.01653671 346.37124348 C90.54830291 345.40769751 87.07876752 344.44890904 83.60883331 343.49150658 C81.9482046 343.03259182 80.28801827 342.57207313 78.62828827 342.10991859 C76.31308724 341.46589992 73.99617803 340.82843532 71.67871094 340.19262695 C70.99500427 340.00097458 70.31129761 339.8093222 69.60687256 339.61186218 C66.35500878 338.72697843 63.78497209 338.3125 60.375 338.3125 C58.79118659 339.88970126 58.79118659 339.88970126 57.5 342 C52.34678133 349.25552678 47.0638853 352.65686307 38.375 354.3125 C25.22227027 355.78286642 16.54815575 349.90120376 6.375 342.3125 C5.56192383 341.70994385 5.56192383 341.70994385 4.73242188 341.09521484 C-7.48931901 331.9950919 -18.95960733 322.06855489 -30.11914062 311.70507812 C-31.67143397 310.26955912 -33.23267078 308.844401 -34.796875 307.421875 C-42.10497228 300.77394401 -49.17789291 294.08748391 -55.625 286.58984375 C-57.53512016 284.41484365 -59.49849566 282.29771292 -61.47729492 280.18530273 C-67.42787726 273.80856516 -72.88793796 267.14435607 -78.17626953 260.21142578 C-79.17892084 258.89719897 -80.1853627 257.5858586 -81.19482422 256.27685547 C-98.77427576 233.47409942 -98.77427576 233.47409942 -97.625 218.3125 C-96.386571 210.21317436 -92.69122277 204.74543578 -86.625 199.3125 C-84.98492991 198.26945259 -83.32391671 197.25667148 -81.625 196.3125 C-82.21429097 190.74736604 -83.20976749 185.55323496 -84.71044922 180.16821289 C-85.02530777 179.0130719 -85.02530777 179.0130719 -85.3465271 177.83459473 C-86.0348834 175.31641445 -86.73167786 172.80067654 -87.4296875 170.28515625 C-87.91444745 168.52782229 -88.39907471 166.77045171 -88.88357544 165.01304626 C-89.89661866 161.34470107 -90.9144375 157.67771822 -91.93505859 154.01147461 C-93.2444159 149.30477754 -94.53678109 144.59359283 -95.82508659 139.88109684 C-96.81852378 136.25773186 -97.82328532 132.63758061 -98.83130264 129.0182476 C-99.31304497 127.2813741 -99.79064395 125.54334599 -100.26406479 123.80418587 C-100.92444153 121.38298094 -101.60048768 118.96670286 -102.28076172 116.55102539 C-102.47412109 115.82848068 -102.66748047 115.10593597 -102.86669922 114.36149597 C-103.46251375 112.17192 -103.46251375 112.17192 -104.625 109.3125 C-108.32883345 108.07788885 -109.67873163 109.00581749 -113.0703125 110.66235352 Z M74.828125 311.40234375 C72.81260018 314.05178363 71.51589563 316.85351557 70.125 319.875 C69.58359375 321.03128906 69.0421875 322.18757813 68.484375 323.37890625 C67.93523437 324.83103516 67.93523437 324.83103516 67.375 326.3125 C68.26887688 328.68518392 68.26887688 328.68518392 71.50544739 329.38148499 C72.9242837 329.77700277 74.34565102 330.163501 75.76879883 330.54321289 C76.54280533 330.7564772 77.31681183 330.96974152 78.11427307 331.18946838 C80.68483304 331.89567805 83.25834507 332.59043409 85.83203125 333.28515625 C87.61482685 333.7724619 89.39743269 334.26046224 91.17985535 334.74913025 C95.88314283 336.03650379 100.58902146 337.31414815 105.29547119 338.58990479 C110.07687892 339.88790718 114.85568101 341.19542879 119.63476562 342.50195312 C126.61954277 344.40984543 133.60518566 346.31450569 140.59301758 348.21118164 C141.32512451 348.41016052 142.05723145 348.6091394 142.81152344 348.81414795 C145.99235405 349.67652119 149.17282199 350.53255884 152.375 351.3125 C153.7628975 345.26523234 155.02874755 339.5231017 154.375 333.3125 C151.2667623 330.22525347 147.70283591 329.31776102 143.55859375 328.13598633 C142.88168488 327.94047684 142.204776 327.74496735 141.50735474 327.54353333 C139.27806059 326.90207432 137.04547314 326.27305255 134.8125 325.64453125 C133.25821142 325.20101195 131.70409589 324.75688578 130.15014648 324.31217957 C126.8968489 323.38315073 123.64195845 322.46000507 120.38574219 321.54125977 C116.21336323 320.36373799 112.04459921 319.17397738 107.87687683 317.98009205 C104.66958659 317.06236879 101.46079781 316.14998359 98.25149536 315.23932457 C96.7137246 314.80251883 95.17634692 314.36432674 93.63937378 313.92472267 C91.49149655 313.31150436 89.3417828 312.70521658 87.19140625 312.10083008 C85.96881104 311.75458084 84.74621582 311.4083316 83.48657227 311.05158997 C78.99097525 309.86839286 78.99097525 309.86839286 74.828125 311.40234375 Z " fill="#3780B9" transform="translate(255.625,-0.3125)"/>
<path d="M0 0 C0.99265869 -0.00845947 1.98531738 -0.01691895 3.00805664 -0.02563477 C4.09594482 -0.01956207 5.18383301 -0.01348938 6.3046875 -0.00723267 C8.02449829 -0.0151181 8.02449829 -0.0151181 9.77905273 -0.02316284 C13.57940178 -0.0363964 17.37933399 -0.02761254 21.1796875 -0.01748657 C23.8138029 -0.01950633 26.44791776 -0.02241695 29.08203125 -0.02618408 C34.60681701 -0.03164314 40.1314825 -0.02444618 45.65625 -0.01016235 C52.04506571 0.00616457 58.43359421 0.00087616 64.82240295 -0.01564157 C70.96643894 -0.03089112 77.1103475 -0.02928318 83.25439453 -0.02049637 C85.86995483 -0.01849084 88.48552243 -0.02096594 91.10107422 -0.02793503 C94.75247801 -0.03552828 98.40332531 -0.02397438 102.0546875 -0.00723267 C103.14257568 -0.01330536 104.23046387 -0.01937805 105.35131836 -0.02563477 C106.34397705 -0.01717529 107.33663574 -0.00871582 108.359375 0 C109.65464111 0.00169662 109.65464111 0.00169662 110.97607422 0.00342751 C113.68100385 0.46683653 114.56544494 1.19054509 116.1796875 3.38095093 C116.6171875 6.38095093 116.6171875 6.38095093 116.1796875 9.38095093 C113.30364479 12.15682694 111.26375348 12.75663492 107.32177734 12.76190186 C105.85813751 12.77459106 105.85813751 12.77459106 104.3649292 12.78753662 C103.30090881 12.78146393 102.23688843 12.77539124 101.140625 12.76913452 C99.45226532 12.77701996 99.45226532 12.77701996 97.72979736 12.7850647 C94.0046201 12.79828174 90.27986921 12.78952021 86.5546875 12.77938843 C83.96923745 12.78140866 81.38378794 12.78431968 78.79833984 12.78808594 C73.37786921 12.79251162 67.95755919 12.78635594 62.53710938 12.77206421 C56.2726909 12.75573785 50.00856535 12.76102648 43.74415398 12.77754343 C37.71491323 12.79280331 31.68581567 12.79118114 25.65655518 12.78239822 C23.09206094 12.78039436 20.52755926 12.78286197 17.96307373 12.78983688 C14.38142989 12.79744001 10.80035163 12.78586229 7.21875 12.76913452 C5.62271942 12.77824356 5.62271942 12.77824356 3.9944458 12.78753662 C2.53080597 12.77484741 2.53080597 12.77484741 1.03759766 12.76190186 C-0.23221451 12.76020524 -0.23221451 12.76020524 -1.52767944 12.75847435 C-4.37428266 12.28972974 -5.75537258 11.37397321 -7.8203125 9.38095093 C-8.27686892 6.25027831 -8.51504993 4.32365741 -6.59423828 1.71726036 C-4.2716321 -0.03237347 -2.89330275 0.00378982 0 0 Z " fill="#1B99C5" transform="translate(273.8203125,124.61904907226563)"/>
<path d="M0 0 C0.88733826 0.00404846 1.77467651 0.00809692 2.68890381 0.01226807 C4.08903717 0.00701111 4.08903717 0.00701111 5.51745605 0.00164795 C8.61374268 -0.00717989 11.70980222 -0.00131648 14.80609131 0.00543213 C16.95078577 0.00408578 19.09547993 0.00214551 21.24017334 -0.00036621 C25.73938904 -0.0033189 30.23852544 0.00098485 34.73773193 0.01031494 C40.51519075 0.02170952 46.29246377 0.01515083 52.06991577 0.00317001 C56.49987192 -0.00404466 60.92978376 -0.00176246 65.35974121 0.0034256 C67.49047874 0.00476318 69.62122024 0.00311059 71.75195312 -0.00153351 C74.72583732 -0.00659227 77.69941736 0.00110237 80.67327881 0.01226807 C81.56061707 0.0082196 82.44795532 0.00417114 83.36218262 0 C89.45256371 0.04252953 89.45256371 0.04252953 91.68109131 2.27105713 C91.93109131 5.77105713 91.93109131 5.77105713 91.68109131 9.27105713 C89.00983551 11.94231292 86.99448144 11.51674968 83.36218262 11.54211426 C82.47484436 11.5380658 81.5875061 11.53401733 80.67327881 11.52984619 C79.27314545 11.53510315 79.27314545 11.53510315 77.84472656 11.54046631 C74.74843994 11.54929415 71.6523804 11.54343074 68.55609131 11.53668213 C66.41139685 11.53802848 64.26670269 11.53996875 62.12200928 11.54248047 C57.62279358 11.54543316 53.12365718 11.54112941 48.62445068 11.53179932 C42.84699186 11.52040474 37.06971884 11.52696343 31.29226685 11.53894424 C26.8623107 11.54615891 22.43239886 11.54387672 18.00244141 11.53868866 C15.87170388 11.53735107 13.74096238 11.53900366 11.61022949 11.54364777 C8.6363453 11.54870653 5.66276525 11.54101189 2.68890381 11.52984619 C1.80156555 11.53389465 0.91422729 11.53794312 0 11.54211426 C-6.0903811 11.49958472 -6.0903811 11.49958472 -8.31890869 9.27105713 C-8.56890869 5.77105713 -8.56890869 5.77105713 -8.31890869 2.27105713 C-5.6476529 -0.40019867 -3.63229883 0.02536458 0 0 Z " fill="#2193C3" transform="translate(274.31890869140625,155.72894287109375)"/>
<path d="M0 0 C0.64764816 -0.00525696 1.29529633 -0.01051392 1.96257019 -0.01593018 C4.09703908 -0.02910191 6.23075829 -0.02040287 8.36523438 -0.01025391 C9.85209292 -0.01227547 11.33895051 -0.0151876 12.82580566 -0.01895142 C15.93946793 -0.02337091 19.05287172 -0.01695602 22.16650391 -0.00292969 C26.15473251 0.01416228 30.14235544 0.00431905 34.13056183 -0.01364708 C37.2000992 -0.02449521 40.26949332 -0.02103392 43.33903503 -0.0132637 C44.80942354 -0.01126453 46.27982512 -0.01371106 47.75019836 -0.02070236 C49.80647154 -0.02833416 51.86176819 -0.01669017 53.91796875 0 C55.67191956 0.00358017 55.67191956 0.00358017 57.46130371 0.00723267 C60.76214291 0.42670955 62.17414944 0.99060613 64.45898438 3.38818359 C64.89648438 6.95068359 64.89648438 6.95068359 64.45898438 10.38818359 C60.83570075 12.80370601 59.14526679 12.64641894 54.83203125 12.6628418 C53.82910789 12.67050819 53.82910789 12.67050819 52.80592346 12.67832947 C50.59643599 12.69222651 48.38726035 12.69126889 46.17773438 12.68896484 C44.64221073 12.69285131 43.10668816 12.69718588 41.57116699 12.70195007 C38.35323602 12.70941221 35.13541477 12.70912079 31.91748047 12.70385742 C27.79127638 12.69805833 23.66552052 12.71500404 19.53939056 12.7382021 C16.36868662 12.75292349 13.19809107 12.75381341 10.02735901 12.75069237 C8.50589611 12.75120624 6.98442724 12.75645638 5.46299744 12.76650429 C3.33701298 12.77882301 1.21190758 12.77210592 -0.9140625 12.76049805 C-2.72916321 12.76144218 -2.72916321 12.76144218 -4.58093262 12.7624054 C-7.54101562 12.38818359 -7.54101562 12.38818359 -9.42785645 11.05241394 C-11.19181082 8.41521123 -10.98970615 6.46491863 -10.54101562 3.38818359 C-7.29499169 0.05249556 -4.52284552 0.00923205 0 0 Z " fill="#288EC0" transform="translate(276.541015625,185.61181640625)"/>
<path d="M0 0 C1.9375 1.6875 1.9375 1.6875 3 4 C2.74943533 6.90933422 2.47881559 8.5008855 0.43359375 10.6328125 C-0.55447266 11.37144531 -0.55447266 11.37144531 -1.5625 12.125 C-8.40800379 17.77623424 -15.39911928 25.99504597 -17 35 C-17.06368047 37.84970083 -17.00750026 40.64062126 -16.8125 43.484375 C-17.04279767 46.57420205 -17.83370554 47.81866183 -20 50 C-23.04861465 50.44458964 -25.01039788 50.62868841 -27.66015625 48.9453125 C-29.7090476 45.9705373 -29.48894568 42.92415042 -29.4375 39.4375 C-29.42847656 38.71731689 -29.41945313 37.99713379 -29.41015625 37.25512695 C-28.94398498 22.82162282 -19.82856262 12.41751253 -9.8828125 2.6796875 C-6.63486804 -0.21785632 -4.309674 -0.43976265 0 0 Z " fill="#2095C4" transform="translate(138,131)"/>
<path d="M0 0 C1.06605469 0.29261719 2.13210938 0.58523438 3.23046875 0.88671875 C4.66290124 3.75158373 4.57579986 5.71202708 4.23046875 8.88671875 C-2.03231694 16.70236728 -11.07338442 22.60055383 -20.76953125 24.88671875 C-23.52679618 25.1677586 -26.24960477 25.21213818 -29.01953125 25.19921875 C-29.7259375 25.21533203 -30.43234375 25.23144531 -31.16015625 25.24804688 C-34.12489337 25.25085439 -36.2328459 25.25200758 -38.7265625 23.5546875 C-40.38897569 20.89607165 -40.21393642 18.9340685 -39.76953125 15.88671875 C-37.6094367 13.74639624 -36.38562629 12.92510167 -33.32421875 12.734375 C-32.43992187 12.80527344 -31.555625 12.87617188 -30.64453125 12.94921875 C-20.17570178 13.17136898 -13.90901815 8.68146421 -6.5078125 1.6171875 C-3.76953125 -0.11328125 -3.76953125 -0.11328125 0 0 Z " fill="#5268AE" transform="translate(370.76953125,378.11328125)"/>
</svg>
